<svg id="Слой_1" data-name="Слой 1" xmlns="http://www.w3.org/2000/svg" xmlns:xlink="http://www.w3.org/1999/xlink" viewBox="0 0 140 40"><defs><style>.cls-1{fill:#f35c43;}.cls-2{fill:#e0e0e0;}.cls-3{fill:#c7e3ee;}.cls-4{fill:#b3d5e0;}.cls-5{fill:#7da6ad;}.cls-6{fill:#9bc4ce;}.cls-7{fill:url(#linear-gradient);}.cls-8,.cls-9{fill:none;stroke:#add1db;stroke-linecap:round;stroke-linejoin:round;stroke-width:0.5px;}.cls-9{stroke-dasharray:1.97 1.97;}.cls-10{fill:url(#linear-gradient-2);}</style><linearGradient id="linear-gradient" x1="54.21" y1="23.1" x2="54.21" y2="27.95" gradientUnits="userSpaceOnUse"><stop offset="0" stop-color="#fff"/><stop offset="0.05" stop-color="#eef7fb"/><stop offset="0.1" stop-color="#dff1f7"/><stop offset="0.18" stop-color="#d7edf5"/><stop offset="0.29" stop-color="#d4ecf4"/><stop offset="0.35" stop-color="#d4ecf4" stop-opacity="0.98"/><stop offset="0.43" stop-color="#d4ecf4" stop-opacity="0.93"/><stop offset="0.51" stop-color="#d4ecf4" stop-opacity="0.83"/><stop offset="0.59" stop-color="#d4ecf4" stop-opacity="0.71"/><stop offset="0.67" stop-color="#d4ecf4" stop-opacity="0.54"/><stop offset="0.75" stop-color="#d4ecf4" stop-opacity="0.34"/><stop offset="0.84" stop-color="#d4ecf4" stop-opacity="0.1"/><stop offset="0.87" stop-color="#d4ecf4" stop-opacity="0"/></linearGradient><linearGradient id="linear-gradient-2" x1="54.21" y1="13.22" x2="54.21" y2="19.37" xlink:href="#linear-gradient"/></defs><title>logo_virus</title><path d="M15.17,13.39A6.66,6.66,0,0,1,17.77,16a7.42,7.42,0,0,1,1,3.81,7.7,7.7,0,0,1-.62,3,8.54,8.54,0,0,1-1.7,2.52A7.94,7.94,0,0,1,13.92,27a7.63,7.63,0,0,1-3.05.62H.39V.71h10.3a7,7,0,0,1,2.79.57A7.4,7.4,0,0,1,15.8,2.84a7.29,7.29,0,0,1,1.56,2.32A7,7,0,0,1,17.93,8a5.89,5.89,0,0,1-.24,1.71,7,7,0,0,1-.62,1.45,7.7,7.7,0,0,1-.89,1.23A8.75,8.75,0,0,1,15.17,13.39ZM4.33,11.85H10a3.76,3.76,0,0,0,1.5-.3,3.64,3.64,0,0,0,1.22-.82,4.24,4.24,0,0,0,.81-1.23A3.89,3.89,0,0,0,13.85,8a3.75,3.75,0,0,0-1.1-2.76A3.7,3.7,0,0,0,10,4.16H4.33Zm5.88,12.36a4.23,4.23,0,0,0,1.73-.37,4.69,4.69,0,0,0,1.41-1,4.39,4.39,0,0,0,1.31-3.1A4.35,4.35,0,0,0,14.31,18a4.48,4.48,0,0,0-2.37-2.37,4.22,4.22,0,0,0-1.73-.35H4.33v8.9Z"/><path class="cls-1" d="M89.93,22.18V.67h3.9V22.18Zm3.9,1.66v3.89h-3.9V23.84Z"/><path d="M116.24,8.1v11a8.2,8.2,0,0,1-1,4.05,8.4,8.4,0,0,1-2.76,3,9.4,9.4,0,0,1-2.2,1,8.55,8.55,0,0,1-4.91,0,9.4,9.4,0,0,1-2.2-1,8.75,8.75,0,0,1-2.75-3,8.11,8.11,0,0,1-1-4.05V8.1h3.79v11a4.44,4.44,0,0,0,.37,1.81,4.67,4.67,0,0,0,4.28,2.83,4.53,4.53,0,0,0,1.8-.37,5,5,0,0,0,1.48-1,4.7,4.7,0,0,0,1-1.47,4.61,4.61,0,0,0,.37-1.81V8.1Z"/><path d="M129.81,8.06a9.56,9.56,0,0,1,3.8.77,10.45,10.45,0,0,1,3.12,2.1,9.76,9.76,0,0,1,2.11,3.13,9.66,9.66,0,0,1,.77,3.82V27.4h-3.79V25.62a10.52,10.52,0,0,1-2.76,1.5,9.86,9.86,0,0,1-7-.23,10,10,0,0,1-3.11-2.1,9.79,9.79,0,0,1-2.09-3.1,9.84,9.84,0,0,1,0-7.63,9.71,9.71,0,0,1,2.09-3.13,10,10,0,0,1,3.1-2.1A9.52,9.52,0,0,1,129.81,8.06Zm0,15.81a5.68,5.68,0,0,0,2.33-.48,6,6,0,0,0,3.18-3.2,5.66,5.66,0,0,0,.48-2.31,5.78,5.78,0,0,0-.48-2.35,6.11,6.11,0,0,0-1.28-1.9,6,6,0,0,0-1.9-1.3,5.92,5.92,0,0,0-4.67,0,6.07,6.07,0,0,0-1.89,1.3,6.14,6.14,0,0,0-1.29,1.9,5.78,5.78,0,0,0-.48,2.35,5.66,5.66,0,0,0,.48,2.31,6.11,6.11,0,0,0,3.18,3.2A5.73,5.73,0,0,0,129.83,23.87Z"/><path d="M38,.6a13.08,13.08,0,0,1,5.26,1.06,13.57,13.57,0,0,1,8.2,12.54,13.25,13.25,0,0,1-1,5.26,13.42,13.42,0,0,1-7.15,7.21,13.53,13.53,0,0,1-10.5,0,13.57,13.57,0,0,1-7.13-7.21,13.25,13.25,0,0,1-1.05-5.26A13.56,13.56,0,0,1,32.73,1.66,13,13,0,0,1,38,.6ZM38,24a8.79,8.79,0,0,0,3.63-.77,9.45,9.45,0,0,0,3-2.09,9.87,9.87,0,0,0,2.74-6.89,10,10,0,0,0-2.74-6.94,9.51,9.51,0,0,0-3-2.11A8.79,8.79,0,0,0,38,4.38a8.65,8.65,0,0,0-3.6.77,9.47,9.47,0,0,0-3,2.11,10,10,0,0,0-2.74,6.94,9.87,9.87,0,0,0,2.74,6.89,9.41,9.41,0,0,0,3,2.09A8.65,8.65,0,0,0,38,24Z"/><path d="M70.66.6a13.08,13.08,0,0,1,5.26,1.06,13.57,13.57,0,0,1,4.29,2.91,13.35,13.35,0,0,1,2.86,4.32,13.45,13.45,0,0,1,1.05,5.31,13.25,13.25,0,0,1-1.05,5.26,13.42,13.42,0,0,1-7.15,7.21,13.53,13.53,0,0,1-10.5,0,13.57,13.57,0,0,1-7.13-7.21,13.25,13.25,0,0,1-1-5.26A13.56,13.56,0,0,1,65.42,1.66,13,13,0,0,1,70.66.6Zm0,23.35a8.79,8.79,0,0,0,3.63-.77,9.34,9.34,0,0,0,3-2.09A9.87,9.87,0,0,0,80,14.2a10,10,0,0,0-2.74-6.94,9.4,9.4,0,0,0-3-2.11,8.79,8.79,0,0,0-3.63-.77,8.65,8.65,0,0,0-3.6.77,9.58,9.58,0,0,0-3,2.11,10,10,0,0,0-2,3.13,9.8,9.8,0,0,0-.74,3.81A9.59,9.59,0,0,0,62.1,18a9.73,9.73,0,0,0,2,3.1,9.52,9.52,0,0,0,3,2.09A8.65,8.65,0,0,0,70.66,24Z"/><path d="M59.88,27.88H59.8a6.94,6.94,0,0,1-.76.94,6.35,6.35,0,0,1-1.9,1.3,5.81,5.81,0,0,1-4.58,0,6.27,6.27,0,0,1-1.13-.65v.06a6.4,6.4,0,0,1-.85-.71,5.69,5.69,0,0,1-.76-.94H45.59c.07.18.13.35.21.53a9.73,9.73,0,0,0,5.2,5.2,9.4,9.4,0,0,0,3.81.77h.08a9.4,9.4,0,0,0,3.81-.77,10.38,10.38,0,0,0,2.1-1.22,9.31,9.31,0,0,0,1-.87,9.81,9.81,0,0,0,2.1-3.11c.08-.18.14-.35.21-.53Z"/><circle cx="34.45" cy="11.48" r="1.9"/><circle cx="67.14" cy="11.48" r="1.9"/><path class="cls-2" d="M82.14,21.18l.07,0a27.06,27.06,0,0,1-4.1,7.29c-2.48,2.64-6.86,5.09-7.14,5.35l-.7-.71a61,61,0,0,0,7-5.12A13,13,0,0,0,79.8,24.1l.35-.34A12.86,12.86,0,0,0,82.14,21.18Z"/><path class="cls-2" d="M83.93,12.21c.77-.49,1-.33,1.15-.18.49.42-1,2.26-1,2.26l0-.94c-1.21.33-7.34,3.31-8.2,4.31L75.07,17C76.48,15.36,83.44,12.52,83.93,12.21Z"/><path class="cls-2" d="M26.47,21.18l-.07,0a27.33,27.33,0,0,0,4.1,7.29c2.48,2.64,6.86,5.09,7.14,5.35l.7-.71a61.88,61.88,0,0,1-7-5.12,13,13,0,0,1-2.57-3.91l-.34-.34A12.91,12.91,0,0,1,26.47,21.18Z"/><path class="cls-2" d="M24.69,12.21c-.78-.49-1-.33-1.16-.18-.49.42,1,2.26,1,2.26l0-.94c1.21.33,7.34,3.31,8.2,4.31l.76-.66C32.13,15.36,25.18,12.52,24.69,12.21Z"/><path class="cls-2" d="M73.57,33.91,80,16.11A1.07,1.07,0,0,0,78.8,14.8c-3.88.14-13.73.37-15.93-.92-2.74-1.63-8.66-1.63-8.66-1.63s-5.92,0-8.66,1.63c-2.2,1.29-12,1.06-15.93.92a1.07,1.07,0,0,0-1.16,1.31l6.39,17.8"/><path class="cls-3" d="M77.52,15.55c-3.68.14-13,.36-15.1-.87-2.6-1.55-8.21-1.55-8.21-1.55s-5.61,0-8.21,1.55c-2.08,1.23-11.42,1-15.1.87a1,1,0,0,0-1.11,1.24l5.06,17.12s9.28,5.49,19.36,5.49,19.36-5.49,19.36-5.49l5.06-17.12A1,1,0,0,0,77.52,15.55Z"/><path class="cls-4" d="M54.21,39.4c10.08,0,19.36-5.49,19.36-5.49l5.06-17.12a1,1,0,0,0-1.11-1.24c-3.68.14-13,.36-15.1-.87-2.6-1.55-8.21-1.55-8.21-1.55"/><path class="cls-5" d="M48.38,23.46a39,39,0,0,1,5.83-.38,66,66,0,0,1,7.51.53l-7.51-1Z"/><path class="cls-6" d="M52.67,31.42,33.35,28.83,34,31l7,2.32-2.2-1.83,15.48,4,15.48-4-2.2,1.83,7-2.32.63-2.14L55.75,31.42A11.35,11.35,0,0,1,52.67,31.42Z"/><path class="cls-5" d="M53.39,35.29,34,31l7,2.32,12.45,3.32a3.12,3.12,0,0,0,1.66,0l12.45-3.32,7-2.32L55,35.29A3.25,3.25,0,0,1,53.39,35.29Z"/><path class="cls-7" d="M52.1,23.16l-12.65.95,14.76,6.36L69,24.11l-12.65-.95A27,27,0,0,0,52.1,23.16Z"/><path class="cls-5" d="M32.11,24.62s11-.49,22.1-1.77C54.21,22.85,48.29,21.67,32.11,24.62Z"/><path class="cls-5" d="M76.31,24.62s-11-.49-22.1-1.77C54.21,22.85,60.13,21.67,76.31,24.62Z"/><path class="cls-6" d="M32.11,24.62c0,.09,10.93-3.55,22.1-3.55a81.53,81.53,0,0,1,22.1,3.56,207.16,207.16,0,0,0-22.1-1.78A208.31,208.31,0,0,0,32.11,24.62Z"/><line class="cls-8" x1="74.6" y1="30.67" x2="74.92" y2="29.72"/><path class="cls-9" d="M75.56,27.85l3.75-11.11s.67-1.6-1.1-1.56S68.1,15.34,65.26,15s-4.14-2.34-11.05-2.34S46,14.68,43.16,15s-11.17.21-12.95.17-1.1,1.56-1.1,1.56l4.07,12"/><line class="cls-8" x1="33.5" y1="29.72" x2="33.82" y2="30.67"/><path class="cls-10" d="M78,15.53c-3.22.13-13.43.44-15.62-.85-2.6-1.55-8.21-1.55-8.21-1.55s-5.61,0-8.21,1.55c-2.2,1.29-12.47,1-15.65.85a.64.64,0,0,0-.7.78l5.2,17.6s9.28,5.49,19.36,5.49,19.36-5.49,19.36-5.49l5.19-17.57A.66.66,0,0,0,78,15.53Z"/></svg>